<?xml version="1.0" encoding="UTF-8" standalone="no"?>
<!-- Created with Inkscape (http://www.inkscape.org/) -->

<svg
   width="128"
   height="128"
   viewBox="0 0 33.866666 33.866666"
   version="1.1"
   id="svg5"
   inkscape:version="1.2.2 (732a01da63, 2022-12-09, custom)"
   sodipodi:docname="fav.svg"
   xmlns:inkscape="http://www.inkscape.org/namespaces/inkscape"
   xmlns:sodipodi="http://sodipodi.sourceforge.net/DTD/sodipodi-0.dtd"
   xmlns="http://www.w3.org/2000/svg"
   xmlns:svg="http://www.w3.org/2000/svg">
  <sodipodi:namedview
     id="namedview7"
     pagecolor="#505050"
     bordercolor="#eeeeee"
     borderopacity="1"
     inkscape:showpageshadow="0"
     inkscape:pageopacity="0"
     inkscape:pagecheckerboard="0"
     inkscape:deskcolor="#505050"
     inkscape:document-units="mm"
     showgrid="false"
     inkscape:zoom="1.761369"
     inkscape:cx="173.44463"
     inkscape:cy="38.890203"
     inkscape:window-width="1850"
     inkscape:window-height="1016"
     inkscape:window-x="0"
     inkscape:window-y="0"
     inkscape:window-maximized="1"
     inkscape:current-layer="layer1" />
  <defs
     id="defs2" />
  <g
     inkscape:label="Layer 1"
     inkscape:groupmode="layer"
     id="layer1">
    <rect
       style="fill:#ffff00;fill-opacity:0.498349;stroke-width:0.264583"
       id="rect243"
       width="33.2561"
       height="33.313606"
       x="0.33152828"
       y="0.32507378" />
    <path
       style="fill:#ffffff;fill-opacity:0.498349;stroke-width:0.264583"
       d="M 7.9373155,23.395336 C 7.0566485,23.119599 6.847606,22.048206 6.15117,21.596868 5.0022349,20.852279 4.4174632,20.170775 3.7166375,19.002732 3.5747473,18.766249 3.360108,18.522973 3.2659939,18.25166 3.1469824,17.908572 3.20867,17.602698 3.1222338,17.262356 2.7396834,15.756063 2.8235648,14.40138 2.8235648,12.793472 c 0,-0.45463 -0.096856,-1.05195 0,-1.500973 C 2.9292208,10.802678 3.1195872,10.401381 3.2747955,9.9393943 3.4957985,9.2815644 4.3211564,7.4841835 4.952974,7.0853172 5.1186841,6.9807044 7.5778221,7.4172436 7.8328694,7.5218784 8.2538453,7.6945862 8.6314686,7.9631327 9.0539497,8.132125 10.06783,8.5376773 11.32841,8.5769457 12.405026,8.7934214 c 0.13083,0.026305 0.285233,-0.033566 0.414264,0 0.54623,0.1420953 2.371965,0.743436 2.905126,0.7569406 0.160719,0.00407 0.735108,-1.6619791 1.192329,-1.95455 0.135904,-0.086964 0.310071,-0.089931 0.462379,-0.1431732 0.255499,-0.089315 3.785373,0.6998708 4.214224,0.7581143 0.490796,0.066657 1.044331,0.036148 1.52679,0.1543219 0.505949,0.1239279 1.004284,0.3476501 1.534419,0.457685 0.150527,0.031244 0.310555,-0.030643 0.461205,0 0.475407,0.096699 1.073797,0.2804477 1.52679,0.4629661 0.864989,0.3485173 1.624055,1.0413249 2.435119,1.5279639 0.359164,0.215498 0.978948,0.474022 1.201719,0.901288 0.409919,0.786215 0.987663,1.647673 1.339022,2.526069 0.187309,0.468277 0.355351,1.014 0.45475,1.50684 0.05027,0.249251 -0.04465,0.51249 0,0.762809 0.03029,0.169831 0.132352,0.320668 0.168404,0.489371 0.07698,0.360205 0,0.830458 0,1.199956 0,2.315567 -0.856075,4.450944 -2.140558,6.377666 -0.559795,0.839695 -2.018028,1.996283 -2.854076,2.553649 -0.653855,0.435903 -1.514784,0.657235 -2.229748,0.946467 -0.887228,0.358921 -1.65848,0.849056 -2.605871,1.063826 -0.665303,0.150821 -2.484613,0 -2.815937,0 -0.646606,0 -1.568254,0.09993 -2.246764,0 -3.19226,-0.470167 0.764888,0.08585 -1.36308,-0.340918 -0.209417,-0.042 -0.431433,0.04245 -0.64076,0 -0.905794,-0.183671 -1.784309,-0.44269 -2.632276,-0.786865 -0.139186,-0.05649 -0.30887,0.04965 -0.450643,0 -0.375267,-0.131411 -0.763468,-0.3701 -1.135411,-0.495827 C 10.25348,27.222936 9.580165,26.69967 8.8562062,26.156702 8.5261224,25.909139 8.3039729,25.489127 7.9601998,25.260696 7.8669466,25.198731 7.7410547,25.187479 7.6597705,25.110481 7.3947593,24.859445 7.9045691,23.478275 7.9373155,23.395336 Z"
       id="path479" />
  </g>
</svg>
